<svg width="367" height="183" viewBox="0 0 367 183" fill="none" xmlns="http://www.w3.org/2000/svg">
<path fill-rule="evenodd" clip-rule="evenodd" d="M127.5 75.0457C144.395 71.1853 157 56.0647 157 38C157 17.0132 139.987 0 119 0C98.0132 0 81 17.0132 81 38C81 56.7707 94.6099 72.3627 112.5 75.4463V145H95.5V160H112.5V168H89.5V183H112.5H119.5H127.5V75.0457Z" fill="#C8102E"/>
<path d="M141 36.0084L136.857 47.3874C131.505 48.6407 127.12 50.0589 123.701 51.6421C120.525 53.1263 117.607 55.0063 114.948 57.2821C113.222 58.7663 110.684 61.3389 107.335 65L104.227 63.9116C104.227 61.7347 104.814 59.5414 105.988 57.3316C106.886 55.6165 107.697 55.0888 109.976 52.2853C106.73 49.1849 104.59 46.9256 103.554 45.5074C102.518 44.0891 102 42.6874 102 41.3021C102 39.4551 103.329 36.2393 105.988 31.6548C108.647 27.0702 111.703 22.2053 113.602 20.5232C115.535 18.8411 117.797 18 120.386 18C125.305 18 127.694 20.0784 130.709 23.5884L127.395 29.9804C126.981 29.7332 126.603 29.5161 126.255 29.3258C122.283 27.1518 116.666 28.1353 114.105 31.8696C113.63 32.5608 113.337 33.3199 113.337 34.1275C113.337 35.1829 113.947 35.794 115.363 36.9484C116.354 37.7151 117.805 38.6128 119.717 39.6416C121.564 40.6356 123.767 40.6381 125.696 39.8144C128.565 38.5895 130.817 37.7661 132.454 37.3442C134.629 36.7505 137.478 36.3053 141 36.0084Z" fill="white"/>
<path fill-rule="evenodd" clip-rule="evenodd" d="M344.5 45.5C344.5 32 319.333 23.433 310.5 23.0997C355 17.0997 367 37.0996 367 48.0996V130H267C267 139.587 264.069 146.79 260.397 151.808C255.302 158.771 246.064 160.1 237.435 160.1H221.5V146.1C232.7 146.5 241.667 144.933 245 142.6V130H212V51.5996C212 35.5996 223.833 30.7663 229 30.5997H267V112.6H283V60.0996C283 55.0996 284.485 33.0996 306.5 33.0996C334.168 33.0996 334.073 51.305 334.006 64.1805V64.1825C334.003 64.8015 334 65.4082 334 66V112.6H345.5C345.459 110.318 345.414 107.794 345.365 105.096L345.365 105.094C345.014 85.7126 344.5 57.3497 344.5 45.5ZM244 114V51C235.2 51 233.5 54 233.5 63L233.5 114H244ZM309.5 50C312.619 49.9999 314 51.0001 314 54.5V113.5H305.5V54C305.5 52.6667 305.5 50 309.5 50Z" fill="#232E4C"/>
<path fill-rule="evenodd" clip-rule="evenodd" d="M57 28.7929V107H180.5V81.5H178V78.7597L180.666 76.6269L199.5 57.7929V130H0V129.5C0 128.571 0.378625 127.346 0.891576 125.987C1.20762 125.15 1.59121 124.221 1.99682 123.239L1.99704 123.238L1.99731 123.238C2.25521 122.613 2.52201 121.968 2.78598 121.31C3.07732 120.584 3.34458 119.972 3.58965 119.411C4.5014 117.324 5.10592 115.941 5.5 112C5.72362 109.764 5.76486 107.074 5.80508 104.452C5.83463 102.525 5.86362 100.635 5.96401 98.988L6.00092 98.3819C6.25088 94.2696 6.5 89.9491 6.5 85V84.9841L6.50102 84.9682C6.80739 80.1683 8.40071 76.4537 10.8047 73.6203C13.2041 70.7923 16.3883 68.8686 19.8407 67.6055C26.4875 65.1736 34.203 65.1621 39.5 65.919V46.2929L57 28.7929ZM39.5 88V107H22.5001C22.5001 106.181 22.4557 105.185 22.4067 104.083C22.1262 97.7796 21.691 88 28.5 88H39.5Z" fill="#232E4C"/>
<ellipse cx="191" cy="156" rx="9" ry="11" fill="#C8102E"/>
<ellipse cx="50.5" cy="11" rx="9" ry="11" fill="#C8102E"/>
<ellipse cx="166.5" cy="156" rx="9" ry="11" fill="#C8102E"/>
<ellipse cx="29.5" cy="11" rx="9" ry="11" fill="#C8102E"/>
<path d="M270 152.649H273.507V140.263H273.553L277.736 152.649H280.625L284.796 140.143H284.843V152.649H288.35V135H283.084L279.309 147.132H279.262L275.278 135H270V152.649Z" fill="#02897A"/>
<path d="M289.839 146.275C289.855 148.336 290.441 149.957 291.598 151.14C292.717 152.364 294.255 152.983 296.212 152.999C298.185 152.983 299.742 152.364 300.884 151.14C302.01 149.957 302.581 148.336 302.597 146.275C302.581 144.199 302.01 142.557 300.884 141.35C299.742 140.151 298.185 139.543 296.212 139.527C294.255 139.543 292.717 140.151 291.598 141.35C290.441 142.557 289.855 144.199 289.839 146.275ZM293.23 146.275C293.214 145.181 293.428 144.231 293.87 143.426C294.297 142.605 295.078 142.187 296.212 142.171C297.369 142.187 298.162 142.605 298.589 143.426C299.008 144.231 299.218 145.181 299.218 146.275C299.218 147.33 299.008 148.259 298.589 149.064C298.162 149.909 297.369 150.34 296.212 150.356C295.078 150.34 294.297 149.909 293.87 149.064C293.428 148.259 293.214 147.33 293.23 146.275Z" fill="#02897A"/>
<path d="M303.737 152.649H306.952V151.02H306.999C307.395 151.712 307.942 152.215 308.641 152.529C309.348 152.843 310.152 152.999 311.053 152.999C312.358 152.999 313.527 152.456 314.56 151.37C315.593 150.291 316.129 148.585 316.168 146.251C316.129 143.909 315.593 142.195 314.56 141.108C313.527 140.054 312.358 139.527 311.053 139.527C310.276 139.527 309.546 139.672 308.863 139.962C308.179 140.275 307.612 140.762 307.162 141.422H307.115V135H303.737V152.649ZM312.777 146.275C312.777 147.378 312.552 148.316 312.102 149.088C311.628 149.917 310.89 150.34 309.888 150.356C308.886 150.34 308.164 149.917 307.721 149.088C307.239 148.316 306.999 147.378 306.999 146.275C306.999 145.149 307.239 144.183 307.721 143.378C308.164 142.589 308.886 142.187 309.888 142.171C310.89 142.187 311.628 142.589 312.102 143.378C312.552 144.183 312.777 145.149 312.777 146.275Z" fill="#02897A"/>
<path d="M317.343 152.649H320.733V139.865H317.343V152.649ZM320.733 135H317.343V137.885H320.733V135Z" fill="#02897A"/>
<path d="M322.42 152.649H325.811V135H322.42V152.649Z" fill="#02897A"/>
<path d="M339.091 147.108C339.168 146.102 339.098 145.141 338.881 144.223C338.764 143.756 338.621 143.326 338.45 142.931C338.256 142.537 338.03 142.167 337.774 141.821C336.772 140.324 335.215 139.559 333.102 139.527C331.207 139.543 329.696 140.183 328.57 141.446C327.405 142.702 326.815 144.312 326.799 146.275C326.815 148.279 327.39 149.893 328.524 151.116C329.619 152.356 331.145 152.983 333.102 152.999C335.953 153.032 337.879 151.595 338.881 148.69H335.898C335.782 149.108 335.487 149.478 335.013 149.8C334.516 150.171 333.918 150.356 333.219 150.356C331.316 150.372 330.306 149.289 330.19 147.108H339.091ZM330.19 144.887C330.19 144.34 330.395 143.756 330.807 143.137C331.017 142.855 331.312 142.622 331.692 142.436C332.042 142.259 332.481 142.171 333.009 142.171C333.832 142.171 334.454 142.392 334.873 142.835C335.3 143.31 335.576 143.994 335.7 144.887H330.19Z" fill="#02897A"/>
<path d="M345.949 152.649H349.701V135H345.949V152.649Z" fill="#C8102E"/>
<path d="M351.912 152.649H359.264C361.858 152.633 363.8 151.776 365.089 150.078C366.363 148.444 367 146.328 367 143.728C366.977 140.791 366.243 138.597 364.798 137.149C363.369 135.716 361.524 135 359.264 135H351.912V152.649ZM355.664 138.259H358.332C360.18 138.276 361.47 138.803 362.2 139.841C362.915 140.879 363.264 142.296 363.248 144.09C363.248 145.048 363.136 145.865 362.911 146.541C362.693 147.233 362.375 147.784 361.955 148.195C361.575 148.613 361.132 148.911 360.627 149.088C360.099 149.289 359.559 149.39 359.008 149.39H355.664V138.259Z" fill="#C8102E"/>
</svg>
